# This file uses centimeters as units for non-parametric coordinates.

mtllib FingerPrintTape.mtl
g default
v 0.353092 -0.538148 10.080950
v 0.300358 -0.538148 9.977454
v 0.218223 -0.538148 9.895318
v 0.114727 -0.538148 9.842584
v 0.000000 -0.538148 9.824413
v -0.114727 -0.538148 9.842584
v -0.218223 -0.538148 9.895318
v -0.300358 -0.538148 9.977454
v -0.353092 -0.538148 10.080950
v -0.371263 -0.538148 10.195677
v -0.353092 -0.538148 10.310403
v -0.300358 -0.538148 10.413900
v -0.218223 -0.538148 10.496035
v -0.114727 -0.538148 10.548769
v -0.000000 -0.538148 10.566940
v 0.114727 -0.538148 10.548769
v 0.218223 -0.538148 10.496035
v 0.300358 -0.538148 10.413900
v 0.353092 -0.538148 10.310403
v 0.371263 -0.538148 10.195677
v 0.353092 0.534121 10.080950
v 0.300358 0.534121 9.977454
v 0.218223 0.534121 9.895318
v 0.114727 0.534121 9.842584
v 0.000000 0.534121 9.824413
v -0.114727 0.534121 9.842584
v -0.218223 0.534121 9.895318
v -0.300358 0.534121 9.977454
v -0.353092 0.534121 10.080950
v -0.371263 0.534121 10.195677
v -0.353092 0.534121 10.310403
v -0.300358 0.534121 10.413900
v -0.218223 0.534121 10.496035
v -0.114727 0.534121 10.548769
v -0.000000 0.534121 10.566940
v 0.114727 0.534121 10.548769
v 0.218223 0.534121 10.496035
v 0.300358 0.534121 10.413900
v 0.353092 0.534121 10.310403
v 0.371263 0.534121 10.195677
v 0.277398 -0.544830 10.105544
v 0.235970 -0.544830 10.024235
v 0.171442 -0.544830 9.959707
v 0.090132 -0.544830 9.918278
v 0.000000 -0.544830 9.904002
v -0.090132 -0.544830 9.918278
v -0.171442 -0.544830 9.959707
v -0.235970 -0.544830 10.024235
v -0.277399 -0.544830 10.105544
v -0.291675 -0.544830 10.195677
v -0.277399 -0.544830 10.285809
v -0.235969 -0.544830 10.367119
v -0.171442 -0.544830 10.431646
v -0.090132 -0.544830 10.473075
v -0.000000 -0.544830 10.487351
v 0.090132 -0.544830 10.473076
v 0.171442 -0.544830 10.431646
v 0.235970 -0.544830 10.367119
v 0.277399 -0.544830 10.285809
v 0.291675 -0.544830 10.195677
v 0.277398 0.545130 10.105544
v 0.235970 0.545130 10.024235
v 0.171442 0.545130 9.959707
v 0.090132 0.545130 9.918278
v 0.000000 0.545130 9.904002
v -0.090132 0.545130 9.918278
v -0.171442 0.545130 9.959707
v -0.235970 0.545130 10.024235
v -0.277399 0.545130 10.105544
v -0.291675 0.545130 10.195677
v -0.277399 0.545130 10.285809
v -0.235969 0.545130 10.367119
v -0.171442 0.545130 10.431646
v -0.090132 0.545130 10.473075
v -0.000000 0.545130 10.487351
v 0.090132 0.545130 10.473076
v 0.171442 0.545130 10.431646
v 0.235970 0.545130 10.367119
v 0.277399 0.545130 10.285809
v 0.291675 0.545130 10.195677
v 0.194832 0.540908 10.463841
v 0.102429 0.540908 10.510922
v -0.000000 0.540908 10.527146
v -0.102430 0.540908 10.510922
v -0.194833 0.540908 10.463841
v -0.268164 0.540908 10.390509
v -0.315245 0.540908 10.298106
v -0.331469 0.540908 10.195677
v -0.315246 0.540908 10.093247
v -0.268164 0.540908 10.000844
v -0.194832 0.540908 9.927513
v -0.102430 0.540908 9.880431
v 0.000000 0.540908 9.864208
v 0.102430 0.540908 9.880431
v 0.194833 0.540908 9.927513
v 0.268164 0.540908 10.000844
v 0.315245 0.540908 10.093247
v 0.331469 0.540908 10.195677
v 0.315246 0.540908 10.298106
v 0.268164 0.540908 10.390509
v 0.268164 -0.543740 10.390509
v 0.315246 -0.543740 10.298106
v 0.331469 -0.543740 10.195677
v 0.315245 -0.543740 10.093247
v 0.268164 -0.543740 10.000844
v 0.194833 -0.543740 9.927513
v 0.102430 -0.543740 9.880431
v 0.000000 -0.543740 9.864208
v -0.102430 -0.543740 9.880431
v -0.194832 -0.543740 9.927513
v -0.268164 -0.543740 10.000844
v -0.315246 -0.543740 10.093247
v -0.331469 -0.543740 10.195677
v -0.315245 -0.543740 10.298106
v -0.268164 -0.543740 10.390509
v -0.194833 -0.543740 10.463841
v -0.102430 -0.543740 10.510922
v -0.000000 -0.543740 10.527146
v 0.102429 -0.543740 10.510922
v 0.194832 -0.543740 10.463841
vt 0.375000 0.312500
vt 0.387500 0.312500
vt 0.400000 0.312500
vt 0.412500 0.312500
vt 0.425000 0.312500
vt 0.437500 0.312500
vt 0.450000 0.312500
vt 0.462500 0.312500
vt 0.475000 0.312500
vt 0.487500 0.312500
vt 0.500000 0.312500
vt 0.512500 0.312500
vt 0.525000 0.312500
vt 0.537500 0.312500
vt 0.550000 0.312500
vt 0.562500 0.312500
vt 0.575000 0.312500
vt 0.587500 0.312500
vt 0.600000 0.312500
vt 0.612500 0.312500
vt 0.625000 0.312500
vt 0.375000 0.688440
vt 0.387500 0.688440
vt 0.400000 0.688440
vt 0.412500 0.688440
vt 0.425000 0.688440
vt 0.437500 0.688440
vt 0.450000 0.688440
vt 0.462500 0.688440
vt 0.475000 0.688440
vt 0.487500 0.688440
vt 0.500000 0.688440
vt 0.512500 0.688440
vt 0.525000 0.688440
vt 0.537500 0.688440
vt 0.550000 0.688440
vt 0.562500 0.688440
vt 0.575000 0.688440
vt 0.587500 0.688440
vt 0.600000 0.688440
vt 0.612500 0.688440
vt 0.625000 0.688440
vt 0.000000 0.000000
vt 1.000000 0.000000
vt 1.000000 1.000000
vt 0.000000 1.000000
vt 0.000000 0.000000
vt 1.000000 0.000000
vt 1.000000 1.000000
vt 0.000000 1.000000
vt 0.000000 0.000000
vt 1.000000 0.000000
vt 1.000000 1.000000
vt 0.000000 1.000000
vt 0.000000 0.000000
vt 1.000000 0.000000
vt 1.000000 1.000000
vt 0.000000 1.000000
vt 0.000000 0.000000
vt 1.000000 0.000000
vt 1.000000 1.000000
vt 0.000000 1.000000
vt 0.000000 0.000000
vt 1.000000 0.000000
vt 1.000000 1.000000
vt 0.000000 1.000000
vt 0.000000 0.000000
vt 1.000000 0.000000
vt 1.000000 1.000000
vt 0.000000 1.000000
vt 0.000000 0.000000
vt 1.000000 0.000000
vt 1.000000 1.000000
vt 0.000000 1.000000
vt 0.000000 0.000000
vt 1.000000 0.000000
vt 1.000000 1.000000
vt 0.000000 1.000000
vt 0.000000 0.000000
vt 1.000000 0.000000
vt 1.000000 1.000000
vt 0.000000 1.000000
vt 0.000000 0.000000
vt 1.000000 0.000000
vt 1.000000 1.000000
vt 0.000000 1.000000
vt 0.000000 0.000000
vt 1.000000 0.000000
vt 1.000000 1.000000
vt 0.000000 1.000000
vt 0.000000 0.000000
vt 1.000000 0.000000
vt 1.000000 1.000000
vt 0.000000 1.000000
vt 0.000000 0.000000
vt 1.000000 0.000000
vt 1.000000 1.000000
vt 0.000000 1.000000
vt 0.000000 0.000000
vt 1.000000 0.000000
vt 1.000000 1.000000
vt 0.000000 1.000000
vt 0.000000 0.000000
vt 1.000000 0.000000
vt 1.000000 1.000000
vt 0.000000 1.000000
vt 0.000000 0.000000
vt 1.000000 0.000000
vt 1.000000 1.000000
vt 0.000000 1.000000
vt 0.000000 0.000000
vt 1.000000 0.000000
vt 1.000000 1.000000
vt 0.000000 1.000000
vt 0.000000 0.000000
vt 1.000000 0.000000
vt 1.000000 1.000000
vt 0.000000 1.000000
vt 0.000000 0.000000
vt 1.000000 0.000000
vt 1.000000 1.000000
vt 0.000000 1.000000
vt 0.000000 0.000000
vt 1.000000 0.000000
vt 1.000000 1.000000
vt 0.000000 1.000000
vt 0.000000 0.000000
vt 1.000000 0.000000
vt 1.000000 1.000000
vt 0.000000 1.000000
vt 0.000000 0.000000
vt 1.000000 0.000000
vt 1.000000 1.000000
vt 0.000000 1.000000
vt 0.000000 0.000000
vt 1.000000 0.000000
vt 1.000000 1.000000
vt 0.000000 1.000000
vt 0.000000 0.000000
vt 1.000000 0.000000
vt 1.000000 1.000000
vt 0.000000 1.000000
vt 0.000000 0.000000
vt 1.000000 0.000000
vt 1.000000 1.000000
vt 0.000000 1.000000
vt 0.000000 0.000000
vt 1.000000 0.000000
vt 1.000000 1.000000
vt 0.000000 1.000000
vt 0.000000 0.000000
vt 1.000000 0.000000
vt 1.000000 1.000000
vt 0.000000 1.000000
vt 0.000000 0.000000
vt 1.000000 0.000000
vt 1.000000 1.000000
vt 0.000000 1.000000
vt 0.000000 0.000000
vt 1.000000 0.000000
vt 1.000000 1.000000
vt 0.000000 1.000000
vt 0.000000 0.000000
vt 1.000000 0.000000
vt 1.000000 1.000000
vt 0.000000 1.000000
vt 0.000000 0.000000
vt 1.000000 0.000000
vt 1.000000 1.000000
vt 0.000000 1.000000
vt 0.000000 0.000000
vt 1.000000 0.000000
vt 1.000000 1.000000
vt 0.000000 1.000000
vt 0.000000 0.000000
vt 1.000000 0.000000
vt 1.000000 1.000000
vt 0.000000 1.000000
vt 0.000000 0.000000
vt 1.000000 0.000000
vt 1.000000 1.000000
vt 0.000000 1.000000
vt 0.000000 0.000000
vt 1.000000 0.000000
vt 1.000000 1.000000
vt 0.000000 1.000000
vt 0.000000 0.000000
vt 1.000000 0.000000
vt 1.000000 1.000000
vt 0.000000 1.000000
vt 0.000000 0.000000
vt 1.000000 0.000000
vt 1.000000 1.000000
vt 0.000000 1.000000
vt 0.000000 0.000000
vt 1.000000 0.000000
vt 1.000000 1.000000
vt 0.000000 1.000000
vt 0.000000 0.000000
vt 1.000000 0.000000
vt 1.000000 1.000000
vt 0.000000 1.000000
vt 0.000000 0.000000
vt 1.000000 0.000000
vt 1.000000 1.000000
vt 0.000000 1.000000
vt 0.000000 0.000000
vt 1.000000 0.000000
vt 1.000000 1.000000
vt 0.000000 1.000000
vt 0.000000 0.000000
vt 1.000000 0.000000
vt 1.000000 1.000000
vt 0.000000 1.000000
vt 0.000000 0.000000
vt 1.000000 0.000000
vt 1.000000 1.000000
vt 0.000000 1.000000
vt 0.000000 0.000000
vt 1.000000 0.000000
vt 1.000000 1.000000
vt 0.000000 1.000000
vt 0.000000 0.000000
vt 1.000000 0.000000
vt 1.000000 1.000000
vt 0.000000 1.000000
vt 0.000000 0.000000
vt 1.000000 0.000000
vt 1.000000 1.000000
vt 0.000000 1.000000
vt 0.000000 0.000000
vt 1.000000 0.000000
vt 1.000000 1.000000
vt 0.000000 1.000000
vt 0.000000 0.000000
vt 1.000000 0.000000
vt 1.000000 1.000000
vt 0.000000 1.000000
vt 0.000000 0.000000
vt 1.000000 0.000000
vt 1.000000 1.000000
vt 0.000000 1.000000
vt 0.000000 0.000000
vt 1.000000 0.000000
vt 1.000000 1.000000
vt 0.000000 1.000000
vt 0.000000 0.000000
vt 1.000000 0.000000
vt 1.000000 1.000000
vt 0.000000 1.000000
vt 0.000000 0.000000
vt 1.000000 0.000000
vt 1.000000 1.000000
vt 0.000000 1.000000
vt 0.000000 0.000000
vt 1.000000 0.000000
vt 1.000000 1.000000
vt 0.000000 1.000000
vt 0.000000 0.000000
vt 1.000000 0.000000
vt 1.000000 1.000000
vt 0.000000 1.000000
vt 0.000000 0.000000
vt 1.000000 0.000000
vt 1.000000 1.000000
vt 0.000000 1.000000
vt 0.000000 0.000000
vt 1.000000 0.000000
vt 1.000000 1.000000
vt 0.000000 1.000000
vt 0.000000 0.000000
vt 1.000000 0.000000
vt 1.000000 1.000000
vt 0.000000 1.000000
vt 0.000000 0.000000
vt 1.000000 0.000000
vt 1.000000 1.000000
vt 0.000000 1.000000
vt 0.000000 0.000000
vt 1.000000 0.000000
vt 1.000000 1.000000
vt 0.000000 1.000000
vt 1.000000 0.500000
vt 0.000000 0.500000
vt 1.000000 0.500000
vt 0.000000 0.500000
vt 1.000000 0.500000
vt 0.000000 0.500000
vt 1.000000 0.500000
vt 0.000000 0.500000
vt 1.000000 0.500000
vt 0.000000 0.500000
vt 1.000000 0.500000
vt 0.000000 0.500000
vt 1.000000 0.500000
vt 0.000000 0.500000
vt 1.000000 0.500000
vt 0.000000 0.500000
vt 1.000000 0.500000
vt 0.000000 0.500000
vt 1.000000 0.500000
vt 0.000000 0.500000
vt 1.000000 0.500000
vt 0.000000 0.500000
vt 1.000000 0.500000
vt 0.000000 0.500000
vt 1.000000 0.500000
vt 0.000000 0.500000
vt 1.000000 0.500000
vt 0.000000 0.500000
vt 1.000000 0.500000
vt 0.000000 0.500000
vt 1.000000 0.500000
vt 0.000000 0.500000
vt 1.000000 0.500000
vt 0.000000 0.500000
vt 1.000000 0.500000
vt 0.000000 0.500000
vt 1.000000 0.500000
vt 0.000000 0.500000
vt 1.000000 0.500000
vt 0.000000 0.500000
vt 1.000000 0.500000
vt 0.000000 0.500000
vt 1.000000 0.500000
vt 0.000000 0.500000
vt 1.000000 0.500000
vt 0.000000 0.500000
vt 1.000000 0.500000
vt 0.000000 0.500000
vt 1.000000 0.500000
vt 0.000000 0.500000
vt 1.000000 0.500000
vt 0.000000 0.500000
vt 1.000000 0.500000
vt 0.000000 0.500000
vt 1.000000 0.500000
vt 0.000000 0.500000
vt 1.000000 0.500000
vt 0.000000 0.500000
vt 1.000000 0.500000
vt 0.000000 0.500000
vt 1.000000 0.500000
vt 0.000000 0.500000
vt 1.000000 0.500000
vt 0.000000 0.500000
vt 1.000000 0.500000
vt 0.000000 0.500000
vt 1.000000 0.500000
vt 0.000000 0.500000
vt 1.000000 0.500000
vt 0.000000 0.500000
vt 1.000000 0.500000
vt 0.000000 0.500000
vt 1.000000 0.500000
vt 0.000000 0.500000
vt 1.000000 0.500000
vt 0.000000 0.500000
vt 1.000000 0.500000
vt 0.000000 0.500000
vt 1.000000 0.500000
vt 0.000000 0.500000
vn 0.951057 0.000000 -0.309016
vn 0.809017 0.000000 -0.587785
vn 0.809017 0.000000 -0.587785
vn 0.951057 0.000000 -0.309016
vn 0.587785 0.000000 -0.809017
vn 0.587785 0.000000 -0.809017
vn 0.309017 0.000000 -0.951057
vn 0.309017 0.000000 -0.951057
vn -0.000000 0.000000 -1.000000
vn -0.000000 0.000000 -1.000000
vn -0.309017 0.000000 -0.951056
vn -0.309017 0.000000 -0.951056
vn -0.587785 0.000000 -0.809017
vn -0.587785 0.000000 -0.809017
vn -0.809017 0.000000 -0.587785
vn -0.809017 0.000000 -0.587785
vn -0.951057 0.000000 -0.309017
vn -0.951057 0.000000 -0.309017
vn -1.000000 0.000000 0.000000
vn -1.000000 0.000000 0.000000
vn -0.951056 0.000000 0.309017
vn -0.951056 0.000000 0.309017
vn -0.809017 0.000000 0.587785
vn -0.809017 0.000000 0.587785
vn -0.587785 0.000000 0.809017
vn -0.587785 0.000000 0.809017
vn -0.309017 0.000000 0.951057
vn -0.309017 0.000000 0.951057
vn 0.000000 0.000000 1.000000
vn 0.000000 0.000000 1.000000
vn 0.309017 0.000000 0.951056
vn 0.309017 0.000000 0.951056
vn 0.587785 0.000000 0.809017
vn 0.587785 0.000000 0.809017
vn 0.809017 0.000000 0.587785
vn 0.809017 0.000000 0.587785
vn 0.951056 0.000000 0.309017
vn 0.951056 0.000000 0.309017
vn 1.000000 0.000000 0.000001
vn 1.000000 0.000000 0.000001
vn 0.112586 -0.990269 -0.081799
vn 0.132353 -0.990269 -0.043004
vn 0.088021 -0.995708 -0.028600
vn 0.074875 -0.995708 -0.054400
vn 0.081799 -0.990269 -0.112587
vn 0.054400 -0.995708 -0.074875
vn 0.043004 -0.990269 -0.132353
vn 0.028600 -0.995708 -0.088021
vn 0.000000 -0.990269 -0.139165
vn 0.000000 -0.995708 -0.092551
vn -0.043004 -0.990269 -0.132354
vn -0.028600 -0.995708 -0.088021
vn -0.081799 -0.990269 -0.112586
vn -0.054400 -0.995708 -0.074875
vn -0.112586 -0.990269 -0.081799
vn -0.074875 -0.995708 -0.054400
vn -0.132353 -0.990269 -0.043004
vn -0.088021 -0.995708 -0.028600
vn -0.139165 -0.990269 -0.000000
vn -0.092551 -0.995708 -0.000000
vn -0.132353 -0.990269 0.043004
vn -0.088021 -0.995708 0.028600
vn -0.112586 -0.990269 0.081799
vn -0.074875 -0.995708 0.054400
vn -0.081799 -0.990269 0.112586
vn -0.054400 -0.995708 0.074875
vn -0.043004 -0.990269 0.132354
vn -0.028600 -0.995708 0.088021
vn -0.000000 -0.990269 0.139166
vn -0.000000 -0.995708 0.092551
vn 0.043004 -0.990269 0.132354
vn 0.028600 -0.995708 0.088022
vn 0.081799 -0.990269 0.112586
vn 0.054400 -0.995708 0.074875
vn 0.112587 -0.990269 0.081799
vn 0.074875 -0.995708 0.054400
vn 0.132354 -0.990269 0.043005
vn 0.088021 -0.995708 0.028600
vn 0.139165 -0.990269 0.000000
vn 0.092551 -0.995708 0.000000
vn 0.159900 0.985765 -0.051954
vn 0.136019 0.985765 -0.098824
vn 0.114874 0.989868 -0.083461
vn 0.135042 0.989868 -0.043878
vn 0.098824 0.985765 -0.136020
vn 0.083461 0.989868 -0.114874
vn 0.051955 0.985765 -0.159901
vn 0.043878 0.989868 -0.135043
vn 0.000000 0.985765 -0.168129
vn 0.000000 0.989868 -0.141992
vn -0.051955 0.985765 -0.159901
vn -0.043878 0.989868 -0.135042
vn -0.098824 0.985765 -0.136020
vn -0.083461 0.989868 -0.114874
vn -0.136019 0.985765 -0.098824
vn -0.114874 0.989868 -0.083461
vn -0.159901 0.985765 -0.051955
vn -0.135042 0.989868 -0.043878
vn -0.168129 0.985765 0.000000
vn -0.141992 0.989868 -0.000000
vn -0.159900 0.985765 0.051955
vn -0.135042 0.989868 0.043878
vn -0.136019 0.985765 0.098824
vn -0.114874 0.989868 0.083461
vn -0.098824 0.985765 0.136020
vn -0.083461 0.989868 0.114874
vn -0.051955 0.985765 0.159902
vn -0.043878 0.989868 0.135042
vn -0.000000 0.985765 0.168131
vn -0.000000 0.989868 0.141992
vn 0.051955 0.985765 0.159902
vn 0.043878 0.989868 0.135043
vn 0.098824 0.985765 0.136020
vn 0.083461 0.989868 0.114874
vn 0.136020 0.985765 0.098824
vn 0.114874 0.989868 0.083461
vn 0.159901 0.985765 0.051955
vn 0.135042 0.989868 0.043878
vn 0.168130 0.985765 0.000000
vn 0.141992 0.989868 0.000000
vn -0.891008 0.000000 0.453987
vn -0.891008 0.000000 0.453987
vn -0.891008 0.000000 0.453987
vn -0.891008 0.000000 0.453987
vn -0.707108 0.000000 0.707106
vn -0.707108 0.000000 0.707106
vn -0.707108 0.000000 0.707106
vn -0.707108 0.000000 0.707106
vn -0.453990 0.000000 0.891007
vn -0.453990 0.000000 0.891007
vn -0.453990 0.000000 0.891007
vn -0.453990 0.000000 0.891007
vn -0.156436 0.000000 0.987688
vn -0.156436 0.000000 0.987688
vn -0.156436 0.000000 0.987688
vn -0.156436 0.000000 0.987688
vn 0.156435 0.000000 0.987688
vn 0.156435 0.000000 0.987688
vn 0.156435 0.000000 0.987688
vn 0.156435 0.000000 0.987688
vn 0.453993 0.000000 0.891005
vn 0.453993 0.000000 0.891005
vn 0.453993 0.000000 0.891005
vn 0.453993 0.000000 0.891005
vn 0.707107 0.000000 0.707107
vn 0.707107 0.000000 0.707107
vn 0.707107 0.000000 0.707107
vn 0.707107 0.000000 0.707107
vn 0.891006 0.000000 0.453991
vn 0.891006 0.000000 0.453991
vn 0.891006 0.000000 0.453991
vn 0.891006 0.000000 0.453991
vn 0.987688 0.000000 0.156436
vn 0.987688 0.000000 0.156436
vn 0.987688 0.000000 0.156436
vn 0.987688 0.000000 0.156436
vn 0.987688 0.000000 -0.156439
vn 0.987688 0.000000 -0.156439
vn 0.987688 0.000000 -0.156439
vn 0.987688 0.000000 -0.156439
vn 0.891007 0.000000 -0.453989
vn 0.891007 0.000000 -0.453989
vn 0.891007 0.000000 -0.453989
vn 0.891007 0.000000 -0.453989
vn 0.707107 0.000000 -0.707106
vn 0.707107 0.000000 -0.707106
vn 0.707107 0.000000 -0.707106
vn 0.707107 0.000000 -0.707106
vn 0.453990 0.000000 -0.891007
vn 0.453990 0.000000 -0.891007
vn 0.453990 0.000000 -0.891007
vn 0.453990 0.000000 -0.891007
vn 0.156438 0.000000 -0.987688
vn 0.156438 0.000000 -0.987688
vn 0.156438 0.000000 -0.987688
vn 0.156438 0.000000 -0.987688
vn -0.156434 0.000000 -0.987688
vn -0.156434 0.000000 -0.987688
vn -0.156434 0.000000 -0.987688
vn -0.156434 0.000000 -0.987688
vn -0.453992 0.000000 -0.891006
vn -0.453992 0.000000 -0.891006
vn -0.453992 0.000000 -0.891006
vn -0.453992 0.000000 -0.891006
vn -0.707105 0.000000 -0.707108
vn -0.707105 0.000000 -0.707108
vn -0.707105 0.000000 -0.707108
vn -0.707105 0.000000 -0.707108
vn -0.891007 0.000000 -0.453989
vn -0.891007 0.000000 -0.453989
vn -0.891007 0.000000 -0.453989
vn -0.891007 0.000000 -0.453989
vn -0.987687 0.000000 -0.156442
vn -0.987687 0.000000 -0.156442
vn -0.987687 0.000000 -0.156442
vn -0.987687 0.000000 -0.156442
vn -0.987687 0.000000 0.156446
vn -0.987687 0.000000 0.156446
vn -0.987687 0.000000 0.156446
vn -0.987687 0.000000 0.156446
vn 0.062022 0.994417 0.085365
vn 0.032607 0.994417 0.100352
vn -0.000000 0.994418 0.105515
vn -0.032607 0.994418 0.100352
vn -0.062021 0.994417 0.085366
vn -0.085365 0.994417 0.062022
vn -0.100353 0.994417 0.032607
vn -0.105517 0.994417 -0.000000
vn -0.100353 0.994417 -0.032607
vn -0.085365 0.994417 -0.062021
vn -0.062022 0.994417 -0.085365
vn -0.032607 0.994417 -0.100353
vn 0.000000 0.994417 -0.105518
vn 0.032607 0.994417 -0.100354
vn 0.062022 0.994417 -0.085366
vn 0.085365 0.994417 -0.062021
vn 0.100353 0.994417 -0.032607
vn 0.105517 0.994417 -0.000000
vn 0.100353 0.994417 0.032607
vn 0.085365 0.994417 0.062021
vn 0.022154 -0.999625 0.016096
vn 0.026044 -0.999625 0.008462
vn 0.027384 -0.999625 -0.000000
vn 0.026044 -0.999625 -0.008462
vn 0.022154 -0.999625 -0.016096
vn 0.016096 -0.999625 -0.022154
vn 0.008462 -0.999625 -0.026043
vn 0.000000 -0.999625 -0.027383
vn -0.008462 -0.999625 -0.026044
vn -0.016096 -0.999625 -0.022155
vn -0.022154 -0.999625 -0.016096
vn -0.026044 -0.999625 -0.008462
vn -0.027384 -0.999625 0.000000
vn -0.026044 -0.999625 0.008462
vn -0.022154 -0.999625 0.016096
vn -0.016096 -0.999625 0.022154
vn -0.008462 -0.999625 0.026043
vn -0.000000 -0.999625 0.027383
vn 0.008462 -0.999625 0.026044
vn 0.016096 -0.999625 0.022155
s 1
g FingerPrintTape
usemtl initialShadingGroup
f 1/1/1 2/2/2 22/23/3 21/22/4
f 2/2/2 3/3/5 23/24/6 22/23/3
f 3/3/5 4/4/7 24/25/8 23/24/6
f 4/4/7 5/5/9 25/26/10 24/25/8
f 5/5/9 6/6/11 26/27/12 25/26/10
f 6/6/11 7/7/13 27/28/14 26/27/12
f 7/7/13 8/8/15 28/29/16 27/28/14
f 8/8/15 9/9/17 29/30/18 28/29/16
f 9/9/17 10/10/19 30/31/20 29/30/18
f 10/10/19 11/11/21 31/32/22 30/31/20
f 11/11/21 12/12/23 32/33/24 31/32/22
f 12/12/23 13/13/25 33/34/26 32/33/24
f 13/13/25 14/14/27 34/35/28 33/34/26
f 14/14/27 15/15/29 35/36/30 34/35/28
f 15/15/29 16/16/31 36/37/32 35/36/30
f 16/16/31 17/17/33 37/38/34 36/37/32
f 17/17/33 18/18/35 38/39/36 37/38/34
f 18/18/35 19/19/37 39/40/38 38/39/36
f 19/19/37 20/20/39 40/41/40 39/40/38
f 20/20/39 1/21/1 21/42/4 40/41/40
s 2
f 2/43/41 1/44/42 104/329/43 105/332/44
f 3/47/45 2/48/41 105/331/44 106/334/46
f 4/51/47 3/52/45 106/333/46 107/336/48
f 5/55/49 4/56/47 107/335/48 108/338/50
f 6/59/51 5/60/49 108/337/50 109/340/52
f 7/63/53 6/64/51 109/339/52 110/342/54
f 8/67/55 7/68/53 110/341/54 111/344/56
f 9/71/57 8/72/55 111/343/56 112/346/58
f 10/75/59 9/76/57 112/345/58 113/348/60
f 11/79/61 10/80/59 113/347/60 114/350/62
f 12/83/63 11/84/61 114/349/62 115/352/64
f 13/87/65 12/88/63 115/351/64 116/354/66
f 14/91/67 13/92/65 116/353/66 117/356/68
f 15/95/69 14/96/67 117/355/68 118/358/70
f 16/99/71 15/100/69 118/357/70 119/360/72
f 17/103/73 16/104/71 119/359/72 120/362/74
f 18/107/75 17/108/73 120/361/74 101/324/76
f 19/111/77 18/112/75 101/323/76 102/326/78
f 20/115/79 19/116/77 102/325/78 103/328/80
f 1/119/42 20/120/79 103/327/80 104/330/43
s 3
f 21/123/81 22/124/82 96/313/83 97/316/84
f 22/127/82 23/128/85 95/311/86 96/314/83
f 23/131/85 24/132/87 94/309/88 95/312/86
f 24/135/87 25/136/89 93/307/90 94/310/88
f 25/139/89 26/140/91 92/305/92 93/308/90
f 26/143/91 27/144/93 91/303/94 92/306/92
f 27/147/93 28/148/95 90/301/96 91/304/94
f 28/151/95 29/152/97 89/299/98 90/302/96
f 29/155/97 30/156/99 88/297/100 89/300/98
f 30/159/99 31/160/101 87/295/102 88/298/100
f 31/163/101 32/164/103 86/293/104 87/296/102
f 32/167/103 33/168/105 85/291/106 86/294/104
f 33/171/105 34/172/107 84/289/108 85/292/106
f 34/175/107 35/176/109 83/287/110 84/290/108
f 35/179/109 36/180/111 82/285/112 83/288/110
f 36/183/111 37/184/113 81/283/114 82/286/112
f 37/187/113 38/188/115 100/321/116 81/284/114
f 38/191/115 39/192/117 99/319/118 100/322/116
f 39/195/117 40/196/119 98/317/120 99/320/118
f 40/199/119 21/200/81 97/315/84 98/318/120
s off
f 61/203/121 62/204/122 42/205/123 41/206/124
f 62/207/125 63/208/126 43/209/127 42/210/128
f 63/211/129 64/212/130 44/213/131 43/214/132
f 64/215/133 65/216/134 45/217/135 44/218/136
f 65/219/137 66/220/138 46/221/139 45/222/140
f 66/223/141 67/224/142 47/225/143 46/226/144
f 67/227/145 68/228/146 48/229/147 47/230/148
f 68/231/149 69/232/150 49/233/151 48/234/152
f 69/235/153 70/236/154 50/237/155 49/238/156
f 70/239/157 71/240/158 51/241/159 50/242/160
f 71/243/161 72/244/162 52/245/163 51/246/164
f 72/247/165 73/248/166 53/249/167 52/250/168
f 73/251/169 74/252/170 54/253/171 53/254/172
f 74/255/173 75/256/174 55/257/175 54/258/176
f 75/259/177 76/260/178 56/261/179 55/262/180
f 76/263/181 77/264/182 57/265/183 56/266/184
f 77/267/185 78/268/186 58/269/187 57/270/188
f 78/271/189 79/272/190 59/273/191 58/274/192
f 79/275/193 80/276/194 60/277/195 59/278/196
f 80/279/197 61/280/198 41/281/199 60/282/200
s 3
f 82/286/112 81/283/114 77/185/201 76/186/202
f 83/288/110 82/285/112 76/181/202 75/182/203
f 84/290/108 83/287/110 75/177/203 74/178/204
f 85/292/106 84/289/108 74/173/204 73/174/205
f 86/294/104 85/291/106 73/169/205 72/170/206
f 87/296/102 86/293/104 72/165/206 71/166/207
f 88/298/100 87/295/102 71/161/207 70/162/208
f 89/300/98 88/297/100 70/157/208 69/158/209
f 90/302/96 89/299/98 69/153/209 68/154/210
f 91/304/94 90/301/96 68/149/210 67/150/211
f 92/306/92 91/303/94 67/145/211 66/146/212
f 93/308/90 92/305/92 66/141/212 65/142/213
f 94/310/88 93/307/90 65/137/213 64/138/214
f 95/312/86 94/309/88 64/133/214 63/134/215
f 96/314/83 95/311/86 63/129/215 62/130/216
f 97/316/84 96/313/83 62/125/216 61/126/217
f 98/318/120 97/315/84 61/201/217 80/202/218
f 99/320/118 98/317/120 80/197/218 79/198/219
f 100/322/116 99/319/118 79/193/219 78/194/220
f 81/284/114 100/321/116 78/189/220 77/190/201
s 2
f 102/326/78 101/323/76 58/113/221 59/114/222
f 103/328/80 102/325/78 59/117/222 60/118/223
f 104/330/43 103/327/80 60/121/223 41/122/224
f 105/332/44 104/329/43 41/45/224 42/46/225
f 106/334/46 105/331/44 42/49/225 43/50/226
f 107/336/48 106/333/46 43/53/226 44/54/227
f 108/338/50 107/335/48 44/57/227 45/58/228
f 109/340/52 108/337/50 45/61/228 46/62/229
f 110/342/54 109/339/52 46/65/229 47/66/230
f 111/344/56 110/341/54 47/69/230 48/70/231
f 112/346/58 111/343/56 48/73/231 49/74/232
f 113/348/60 112/345/58 49/77/232 50/78/233
f 114/350/62 113/347/60 50/81/233 51/82/234
f 115/352/64 114/349/62 51/85/234 52/86/235
f 116/354/66 115/351/64 52/89/235 53/90/236
f 117/356/68 116/353/66 53/93/236 54/94/237
f 118/358/70 117/355/68 54/97/237 55/98/238
f 119/360/72 118/357/70 55/101/238 56/102/239
f 120/362/74 119/359/72 56/105/239 57/106/240
f 101/324/76 120/361/74 57/109/240 58/110/221
